<svg xmlns:dc="http://purl.org/dc/elements/1.1/" xmlns:cc="http://creativecommons.org/ns#" xmlns:rdf="http://www.w3.org/1999/02/22-rdf-syntax-ns#" xmlns:svg="http://www.w3.org/2000/svg" xmlns="http://www.w3.org/2000/svg" viewBox="0 0 360 360" fill="none"><metadata><rdf:RDF><cc:Work><dc:format>image/svg+xml</dc:format><dc:type rdf:resource="http://purl.org/dc/dcmitype/StillImage"/><dc:title>Avatar Illustration System</dc:title><dc:creator><cc:Agent><dc:title>Micah Lanier</dc:title></cc:Agent></dc:creator><dc:source>https://www.figma.com/community/file/829741575478342595</dc:source><cc:license rdf:resource="https://creativecommons.org/licenses/by/4.0/"/></cc:Work><cc:License rdf:about="https://creativecommons.org/licenses/by/4.0/"><cc:permits rdf:resource="https://creativecommons.org/ns#Reproduction"/><cc:permits rdf:resource="https://creativecommons.org/ns#Distribution"/><cc:permits rdf:resource="https://creativecommons.org/ns#DerivativeWorks"/><cc:requires rdf:resource="https://creativecommons.org/ns#Notice"/><cc:requires rdf:resource="https://creativecommons.org/ns#Attribution"/></cc:License></rdf:RDF></metadata><mask id="avatarsRadiusMask"><rect width="360" height="360" rx="0" ry="0" x="0" y="0" fill="#fff"/></mask><g mask="url(#avatarsRadiusMask)"><g transform="translate(80 23)"><path d="M154 319.5c-14.4-20-25.667-58.666-27-78L58.5 212 30 319.5h124Z" fill="rgba(119, 49, 29, 1)" stroke="#000" stroke-width="4"/><mask id="baseStandard-a" style="mask-type:alpha" maskUnits="userSpaceOnUse" x="30" y="212" width="124" height="118"><path d="M154 329.5c-14.4-20-25.667-68.666-27-88L58.5 212 30 329.5h124Z" fill="rgba(119, 49, 29, 1)"/></mask><g mask="url(#baseStandard-a)"><ellipse cx="124" cy="210" rx="59" ry="54" fill="#000" style="mix-blend-mode:multiply"/></g><path d="m181.939 151.374.002.009.093.389.144.654c8.851 40.206-16.109 80.258-56.315 89.89-40.205 9.633-80.606-14.759-90.935-54.61l-.19-.733-16.735-69.844-.067-.289C8.512 76.334 33.544 35.757 74.048 26.053c40.504-9.704 81.206 15.123 91.161 55.501l.051.208.02.083.001.005.048.198.047.199.002.004 16.396 68.437.003.009.081.338.081.339Z" fill="rgba(119, 49, 29, 1)" stroke="#000" stroke-width="4"/><g><g transform="translate(34 102.3)"><g fill="rgba(119, 49, 29, 1)" stroke="rgba(119, 49, 29, 1)"><path d="M31 109a1 1 0 1 1-2 0 1 1 0 0 1 2 0ZM83 116a1 1 0 1 1-2 0 1 1 0 0 1 2 0ZM79 123a1 1 0 1 1-2 0 1 1 0 0 1 2 0ZM99 121a1 1 0 1 1-2 0 1 1 0 0 1 2 0ZM100 111a1 1 0 1 1-2 0 1 1 0 0 1 2 0ZM120 116a1 1 0 1 1-2 0 1 1 0 0 1 2 0ZM130 102a1 1 0 1 1-2 0 1 1 0 0 1 2 0ZM21 88a1 1 0 1 1-2 0 1 1 0 0 1 2 0ZM54 104a1 1 0 1 1-2 0 1 1 0 0 1 2 0ZM51 124a1 1 0 1 1-2 0 1 1 0 0 1 2 0ZM69 128a1 1 0 1 1-2 0 1 1 0 0 1 2 0ZM103 102a1 1 0 1 1-2 0 1 1 0 0 1 2 0ZM117 106a1 1 0 1 1-2 0 1 1 0 0 1 2 0ZM109 123a1 1 0 1 1-2 0 1 1 0 0 1 2 0ZM123 92a1 1 0 1 1-2 0 1 1 0 0 1 2 0ZM30 94a1 1 0 1 1-2 0 1 1 0 0 1 2 0ZM54 94a1 1 0 1 1-2 0 1 1 0 0 1 2 0ZM54 76a1 1 0 1 1-2 0 1 1 0 0 1 2 0ZM58 130a1 1 0 1 1-2 0 1 1 0 0 1 2 0ZM85 130a1 1 0 1 1-2 0 1 1 0 0 1 2 0ZM96 130a1 1 0 1 1-2 0 1 1 0 0 1 2 0ZM113 94a1 1 0 1 1-2 0 1 1 0 0 1 2 0ZM113 76a1 1 0 1 1-2 0 1 1 0 0 1 2 0ZM133 89a1 1 0 1 1-2 0 1 1 0 0 1 2 0ZM33 81a1 1 0 1 1-2 0 1 1 0 0 1 2 0ZM43 116a1 1 0 1 1-2 0 1 1 0 0 1 2 0ZM39 123a1 1 0 1 1-2 0 1 1 0 0 1 2 0ZM79 103a1 1 0 1 1-2 0 1 1 0 0 1 2 0ZM91 105a1 1 0 1 1-2 0 1 1 0 0 1 2 0ZM77 135a1 1 0 1 1-2 0 1 1 0 0 1 2 0ZM100 84a1 1 0 1 1-2 0 1 1 0 0 1 2 0ZM100 66a1 1 0 1 1-2 0 1 1 0 0 1 2 0ZM124 81a1 1 0 1 1-2 0 1 1 0 0 1 2 0ZM131 71a1 1 0 1 1-2 0 1 1 0 0 1 2 0ZM42 90a1 1 0 1 1-2 0 1 1 0 0 1 2 0ZM42 101a1 1 0 1 1-2 0 1 1 0 0 1 2 0ZM63 86a1 1 0 1 1-2 0 1 1 0 0 1 2 0ZM63 68a1 1 0 1 1-2 0 1 1 0 0 1 2 0ZM75 82a1 1 0 1 1-2 0 1 1 0 0 1 2 0ZM87 76a1 1 0 1 1-2 0 1 1 0 0 1 2 0ZM100 76a1 1 0 1 1-2 0 1 1 0 0 1 2 0Z" fill="#000"/><path d="M113 76a1 1 0 1 1-2 0 1 1 0 0 1 2 0ZM139 76a1 1 0 1 1-2 0 1 1 0 0 1 2 0ZM61 116a1 1 0 1 1-2 0 1 1 0 0 1 2 0ZM72 110a1 1 0 1 1-2 0 1 1 0 0 1 2 0ZM68 102a1 1 0 1 1-2 0 1 1 0 0 1 2 0ZM92 93a1 1 0 1 1-2 0 1 1 0 0 1 2 0ZM43 75a1 1 0 1 1-2 0 1 1 0 0 1 2 0ZM80 91a1 1 0 1 1-2 0 1 1 0 0 1 2 0ZM80 73a1 1 0 1 1-2 0 1 1 0 0 1 2 0ZM115 87a1 1 0 1 1-2 0 1 1 0 0 1 2 0ZM115 69a1 1 0 1 1-2 0 1 1 0 0 1 2 0ZM122 71a1 1 0 1 1-2 0 1 1 0 0 1 2 0ZM137 62a1 1 0 1 1-2 0 1 1 0 0 1 2 0Z" fill="#000"/><path d="M31 109a1 1 0 1 1-2 0 1 1 0 0 1 2 0ZM83 116a1 1 0 1 1-2 0 1 1 0 0 1 2 0ZM79 123a1 1 0 1 1-2 0 1 1 0 0 1 2 0ZM99 121a1 1 0 1 1-2 0 1 1 0 0 1 2 0ZM100 111a1 1 0 1 1-2 0 1 1 0 0 1 2 0ZM120 116a1 1 0 1 1-2 0 1 1 0 0 1 2 0ZM130 102a1 1 0 1 1-2 0 1 1 0 0 1 2 0ZM21 88a1 1 0 1 1-2 0 1 1 0 0 1 2 0ZM54 104a1 1 0 1 1-2 0 1 1 0 0 1 2 0ZM51 124a1 1 0 1 1-2 0 1 1 0 0 1 2 0ZM69 128a1 1 0 1 1-2 0 1 1 0 0 1 2 0ZM103 102a1 1 0 1 1-2 0 1 1 0 0 1 2 0ZM117 106a1 1 0 1 1-2 0 1 1 0 0 1 2 0ZM109 123a1 1 0 1 1-2 0 1 1 0 0 1 2 0ZM123 92a1 1 0 1 1-2 0 1 1 0 0 1 2 0ZM30 94a1 1 0 1 1-2 0 1 1 0 0 1 2 0ZM54 94a1 1 0 1 1-2 0 1 1 0 0 1 2 0ZM54 76a1 1 0 1 1-2 0 1 1 0 0 1 2 0ZM58 130a1 1 0 1 1-2 0 1 1 0 0 1 2 0ZM85 130a1 1 0 1 1-2 0 1 1 0 0 1 2 0ZM96 130a1 1 0 1 1-2 0 1 1 0 0 1 2 0ZM113 94a1 1 0 1 1-2 0 1 1 0 0 1 2 0ZM113 76a1 1 0 1 1-2 0 1 1 0 0 1 2 0ZM133 89a1 1 0 1 1-2 0 1 1 0 0 1 2 0ZM33 81a1 1 0 1 1-2 0 1 1 0 0 1 2 0ZM43 116a1 1 0 1 1-2 0 1 1 0 0 1 2 0ZM39 123a1 1 0 1 1-2 0 1 1 0 0 1 2 0ZM79 103a1 1 0 1 1-2 0 1 1 0 0 1 2 0ZM91 105a1 1 0 1 1-2 0 1 1 0 0 1 2 0ZM77 135a1 1 0 1 1-2 0 1 1 0 0 1 2 0ZM100 84a1 1 0 1 1-2 0 1 1 0 0 1 2 0ZM100 66a1 1 0 1 1-2 0 1 1 0 0 1 2 0ZM124 81a1 1 0 1 1-2 0 1 1 0 0 1 2 0ZM131 71a1 1 0 1 1-2 0 1 1 0 0 1 2 0ZM42 90a1 1 0 1 1-2 0 1 1 0 0 1 2 0ZM42 101a1 1 0 1 1-2 0 1 1 0 0 1 2 0ZM63 86a1 1 0 1 1-2 0 1 1 0 0 1 2 0ZM63 68a1 1 0 1 1-2 0 1 1 0 0 1 2 0ZM75 82a1 1 0 1 1-2 0 1 1 0 0 1 2 0ZM87 76a1 1 0 1 1-2 0 1 1 0 0 1 2 0ZM100 76a1 1 0 1 1-2 0 1 1 0 0 1 2 0Z" stroke="#000"/><path d="M113 76a1 1 0 1 1-2 0 1 1 0 0 1 2 0ZM139 76a1 1 0 1 1-2 0 1 1 0 0 1 2 0ZM61 116a1 1 0 1 1-2 0 1 1 0 0 1 2 0ZM72 110a1 1 0 1 1-2 0 1 1 0 0 1 2 0ZM68 102a1 1 0 1 1-2 0 1 1 0 0 1 2 0ZM92 93a1 1 0 1 1-2 0 1 1 0 0 1 2 0ZM43 75a1 1 0 1 1-2 0 1 1 0 0 1 2 0ZM80 91a1 1 0 1 1-2 0 1 1 0 0 1 2 0ZM80 73a1 1 0 1 1-2 0 1 1 0 0 1 2 0ZM115 87a1 1 0 1 1-2 0 1 1 0 0 1 2 0ZM115 69a1 1 0 1 1-2 0 1 1 0 0 1 2 0ZM122 71a1 1 0 1 1-2 0 1 1 0 0 1 2 0ZM137 62a1 1 0 1 1-2 0 1 1 0 0 1 2 0Z" stroke="#000"/></g></g></g></g><g transform="translate(170 183)"><path d="M36.047 54.891c10.837-1.96 17.186-13.936 14.978-26.137S38.673 7.562 27.836 9.524C17 11.483 10.65 23.46 12.86 35.66c2.208 12.2 12.35 21.192 23.188 19.23Z" fill="rgba(0, 0, 0, 1)" stroke="rgba(0, 0, 0, 1)" stroke-width="3.591"/><mask id="mouthSurprised-a" style="mask-type:alpha" maskUnits="userSpaceOnUse" x="14" y="11" width="36" height="43"><ellipse cx="31.942" cy="32.207" rx="17.598" ry="21.257" transform="rotate(-10.258 31.942 32.207)" fill="#171921"/></mask><g mask="url(#mouthSurprised-a)"><ellipse cx="35.202" cy="50.219" rx="20.205" ry="18.305" transform="rotate(-10.258 35.202 50.219)" fill="#FC909F"/></g></g><g transform="translate(110 102)"><g stroke="rgba(0, 0, 0, 1)" stroke-width="4" stroke-linecap="round"><path d="M27 26.5c6.167 2.5 21.1 3 31.5-15M94 4c5.167 5.333 18.1 12.8 28.5 0"/></g></g><g transform="translate(49 11)"><g stroke="#000" stroke-width="4"><path d="M222.726 100.791c0-66.089-36.458-110.79-80.867-110.791C84.966-10 27 11.341 27 112.254c0 24.969 10.659 43.573 25.565 57.286-1.495-1.869-2.698-3.544-3.498-4.921-2.891-26.981 29.166-47.69 60.534-67.954 16.653-10.758 33.111-21.39 44.045-32.77 9.594 5.437 37.794 28.214 43.167 37.425 2.882 4.94 7.509 21.869 10.671 41.63 10.338-12.418 15.242-24.843 15.242-42.159Z" fill="rgba(244, 209, 80, 1)"/><path d="M154.264 63.246C167.438 51.3 187.146 24.04 185.881 6.334"/></g></g><g transform="translate(142 119)"><g fill="#000"><path d="M5.287 34.073c.114.813 1.147.994 1.722.408 2.465-2.516 6.255-4.365 10.654-4.887 2.595-.309 5.091-.12 7.316.472.754.2 1.495-.437 1.232-1.17-1.666-4.646-6.366-7.7-11.475-7.093-5.942.706-10.186 6.095-9.48 12.036l.03.234ZM69.385 24.073c.113.813 1.146.994 1.721.409 2.443-2.486 6.192-4.312 10.542-4.829 2.565-.304 5.032-.118 7.232.464.754.2 1.495-.438 1.23-1.171-1.654-4.594-6.306-7.611-11.362-7.01-5.886.699-10.09 6.037-9.39 11.923.008.071.017.143.027.213Z"/></g><g transform="translate(-40 -8)"/></g><g transform="rotate(-8 1149.438 -1186.916)"><path d="M16.5 3c0 14 7 25 7 25S20 34 10 32" stroke="#000" stroke-width="4"/></g><g transform="translate(84 154)"><path d="M30.5 6.176A23.778 23.778 0 0 0 23.08 5c-10.493 0-19 6.5-18 18.5 1.042 12.5 8.507 17 19 17 1.168 0 2.31-.102 3.42-.299 1.21-.214 2.381-.54 3.5-.966" stroke="#000" stroke-width="8"/><path d="M31.5 39.036a19.382 19.382 0 0 1-7.42 1.464c-10.493 0-17.958-4.5-19-17-1-12 7.507-18.5 18-18.5 3.138 0 6.187.606 8.92 1.73l-.5 32.306Z" fill="rgba(119, 49, 29, 1)"/><path d="M27.5 13.5c-4-1.833-12.8-2.8-16 8" stroke="#000" stroke-width="4"/><path d="M17 14c2.167 1.833 6.3 7.5 5.5 15.5" stroke="#000" stroke-width="4"/><g transform="translate(3 35)"><circle cx="25" cy="2" r="4" fill="rgba(252, 144, 159, 1)"/><circle cx="26" cy="1" r="1" fill="#fff"/></g></g><g transform="translate(53 272)"><g stroke="#000" stroke-width="4"><path d="M260.694 91h-273.32c16.3-29.342 39.484-48.018 77.07-56.588C80.459 30.76 99.114 28.939 121 28.939c9.456 0 16.814 1.443 23.796 3.346 2.587.705 5.187 1.496 7.847 2.304 4.402 1.337 8.968 2.725 13.909 3.86l.14.032.144.012C212.961 42.297 240.62 62.785 260.694 91Z" fill="rgba(244, 209, 80, 1)"/><path d="m52.93 36.58 9.154-19.596c.218-.468.762-.691 1.249-.519 37.926 13.425 72.429 12.48 104.403 3.58.403-.113.833.036 1.079.373l13.932 19.052c.383.524.188 1.262-.416 1.5-33.607 13.196-96.668 10.953-128.916-3.066a.978.978 0 0 1-.484-1.324Z" fill="rgba(244, 209, 80, 1)"/><path opacity=".75" d="m52.93 36.58 9.154-19.596c.218-.468.762-.691 1.249-.519 37.926 13.425 72.429 12.48 104.403 3.58.403-.113.833.036 1.079.373l13.932 19.052c.383.524.188 1.262-.416 1.5-33.607 13.196-96.668 10.953-128.916-3.066a.978.978 0 0 1-.484-1.324Z" fill="#fff"/></g></g></g></svg>