<svg xmlns:dc="http://purl.org/dc/elements/1.1/" xmlns:cc="http://creativecommons.org/ns#" xmlns:rdf="http://www.w3.org/1999/02/22-rdf-syntax-ns#" xmlns:svg="http://www.w3.org/2000/svg" xmlns="http://www.w3.org/2000/svg" viewBox="0 0 360 360" fill="none"><metadata><rdf:RDF><cc:Work><dc:format>image/svg+xml</dc:format><dc:type rdf:resource="http://purl.org/dc/dcmitype/StillImage"/><dc:title>Avatar Illustration System</dc:title><dc:creator><cc:Agent><dc:title>Micah Lanier</dc:title></cc:Agent></dc:creator><dc:source>https://www.figma.com/community/file/829741575478342595</dc:source><cc:license rdf:resource="https://creativecommons.org/licenses/by/4.0/"/></cc:Work><cc:License rdf:about="https://creativecommons.org/licenses/by/4.0/"><cc:permits rdf:resource="https://creativecommons.org/ns#Reproduction"/><cc:permits rdf:resource="https://creativecommons.org/ns#Distribution"/><cc:permits rdf:resource="https://creativecommons.org/ns#DerivativeWorks"/><cc:requires rdf:resource="https://creativecommons.org/ns#Notice"/><cc:requires rdf:resource="https://creativecommons.org/ns#Attribution"/></cc:License></rdf:RDF></metadata><mask id="avatarsRadiusMask"><rect width="360" height="360" rx="0" ry="0" x="0" y="0" fill="#fff"/></mask><g mask="url(#avatarsRadiusMask)"><g transform="translate(80 23)"><path d="M154 319.5c-14.4-20-25.667-58.666-27-78L58.5 212 30 319.5h124Z" fill="rgba(249, 201, 182, 1)" stroke="#000" stroke-width="4"/><mask id="baseStandard-a" style="mask-type:alpha" maskUnits="userSpaceOnUse" x="30" y="212" width="124" height="118"><path d="M154 329.5c-14.4-20-25.667-68.666-27-88L58.5 212 30 329.5h124Z" fill="rgba(249, 201, 182, 1)"/></mask><g mask="url(#baseStandard-a)"><ellipse cx="124" cy="210" rx="59" ry="54" fill="#000" style="mix-blend-mode:multiply"/></g><path d="m181.939 151.374.002.009.093.389.144.654c8.851 40.206-16.109 80.258-56.315 89.89-40.205 9.633-80.606-14.759-90.935-54.61l-.19-.733-16.735-69.844-.067-.289C8.512 76.334 33.544 35.757 74.048 26.053c40.504-9.704 81.206 15.123 91.161 55.501l.051.208.02.083.001.005.048.198.047.199.002.004 16.396 68.437.003.009.081.338.081.339Z" fill="rgba(249, 201, 182, 1)" stroke="#000" stroke-width="4"/><g><g transform="translate(34 102.3)"/></g></g><g transform="translate(170 183)"><path d="M36.047 54.891c10.837-1.96 17.186-13.936 14.978-26.137S38.673 7.562 27.836 9.524C17 11.483 10.65 23.46 12.86 35.66c2.208 12.2 12.35 21.192 23.188 19.23Z" fill="rgba(0, 0, 0, 1)" stroke="rgba(0, 0, 0, 1)" stroke-width="3.591"/><mask id="mouthSurprised-a" style="mask-type:alpha" maskUnits="userSpaceOnUse" x="14" y="11" width="36" height="43"><ellipse cx="31.942" cy="32.207" rx="17.598" ry="21.257" transform="rotate(-10.258 31.942 32.207)" fill="#171921"/></mask><g mask="url(#mouthSurprised-a)"><ellipse cx="35.202" cy="50.219" rx="20.205" ry="18.305" transform="rotate(-10.258 35.202 50.219)" fill="#FC909F"/></g></g><g transform="translate(110 102)"><g stroke="rgba(0, 0, 0, 1)" stroke-width="4" stroke-linecap="round"><path d="M27 26.5c6.167 2.5 21.1 3 31.5-15M94 4c5.167 5.333 18.1 12.8 28.5 0"/></g></g><g transform="translate(49 11)"><path d="M-13.4 312.857a79.154 79.154 0 0 1-.617-1.638 126.31 126.31 0 0 1-2.235-6.74c-1.757-5.812-3.867-14.099-5.275-23.977-2.817-19.777-2.796-45.806 8.397-71.118 1.809-4.092 4.07-8.295 6.52-12.851 9.468-17.602 21.765-40.463 21.765-82.449 0-30.59 14.848-56.354 36.707-74.515 21.88-18.178 50.698-28.658 78.375-28.658 15.131 0 27.296 1.733 37.074 7.64 9.717 5.87 17.368 16.047 23.051 33.581.578 1.785 2.489 2.875 4.357 2.27 11.315-3.672 28.472.034 42.954 9.488 14.418 9.413 25.616 24.156 25.616 41.924 0 15.426-2.642 25.85-5.218 36.001-3.119 12.289-6.131 24.159-4.006 43.498.709 6.449 2.151 11.023 4.166 14.815 1.982 3.731 4.481 6.619 7.114 9.664l.06.069c6.274 7.252 9.129 13.218 10.05 18.466.92 5.235-.043 9.983-1.832 14.91-.9 2.475-1.994 4.96-3.153 7.578l-.1.226c-1.122 2.532-2.296 5.184-3.351 7.975-2.183 5.771-3.886 12.207-3.717 19.835.144 6.475 1.292 10.913 3.009 14.271 1.697 3.32 3.888 5.443 5.799 7.294l.052.05c1.743 1.689 3.193 3.111 4.266 5.104.959 1.781 1.67 4.132 1.789 7.662-24.009 14.279-47.772 20.181-65.616 22.502-9.036 1.176-16.544 1.432-21.783 1.395-2.619-.019-4.669-.11-6.058-.197-.489-.03-.895-.06-1.216-.085-6.151-9.389-11.755-24.878-16.097-40.788-4.221-15.47-7.186-31.091-8.3-41.41 37.073-10.718 60.311-48.982 54.724-88.46-.007-.072-.015-.122-.015-.123a17.077 17.077 0 0 0-.13-.766 136.35 136.35 0 0 0-.373-1.954 384.883 384.883 0 0 0-1.411-6.814 486.965 486.965 0 0 0-5.117-21.377c-2.14-8.09-4.673-16.67-7.453-24.21-2.759-7.485-5.831-14.143-9.108-18.24l-.297-.37-.435-.189c-1.932-.838-3.939-1.772-6.033-2.747-9.931-4.624-21.84-10.17-37.264-10.78-18.775-.742-42.551 5.777-74.69 29.087l-2.024 1.467 1.946 1.567c15.926 12.834 19.37 29.858 18.633 44.308-.561 11.029-3.55 20.411-5.235 25.101-1.161-1.697-1.901-3.83-2.457-6.335-.385-1.731-.665-3.556-.959-5.467l-.046-.302c-.307-1.994-.634-4.075-1.11-6.084-.952-4.011-2.561-8.02-6.133-10.859-3.58-2.845-8.796-4.254-16.393-3.83l-2.227.124.465 2.182 11.358 53.313.02.089.027.088c4.058 12.862 11.016 24.01 19.913 32.812a106.12 106.12 0 0 1 1.538 2.683 129.34 129.34 0 0 1 3.76 7.323c2.815 5.949 5.66 13.252 6.209 19.216.556 6.052-.965 13.86-2.707 20.31a129.626 129.626 0 0 1-2.842 9.137c-5.032-2.405-9.527-2.226-13.379.016-4.163 2.424-7.213 7.06-9.483 12.216-4.148 9.421-6.143 21.639-7.064 29.221-24.87-5.704-44.074-11.495-57.14-15.895-6.714-2.261-11.807-4.154-15.216-5.48a190.79 190.79 0 0 1-4.398-1.77Z" fill="rgba(255, 235, 164, 1)" stroke="#000" stroke-width="3.822"/></g><g transform="translate(142 119)"><circle cx="15.24" cy="20.239" r="12" transform="rotate(-6.276 15.24 20.24)" fill="rgba(255, 235, 164, 1)"/><ellipse cx="16.53" cy="29.402" rx="9" ry="13.5" transform="rotate(-6.776 16.53 29.402)" fill="#000"/><circle cx="79.019" cy="11.611" r="12" transform="rotate(-6.276 79.02 11.61)" fill="rgba(255, 235, 164, 1)"/><ellipse cx="80.531" cy="19.402" rx="9" ry="13.5" transform="rotate(-6.276 80.531 19.402)" fill="#000"/><g><g transform="translate(-40 -8)"/></g></g><g transform="rotate(-8 1149.438 -1186.916)"><path d="M16.5 3c0 14 7 25 7 25S20 34 10 32" stroke="#000" stroke-width="4"/></g><g transform="translate(84 154)"><path d="M37 8.25V7.13l-.954-.585C32.312 4.254 27.772 3 23.08 3 17.44 3 12.16 4.747 8.398 8.295c-3.804 3.587-5.856 8.832-5.311 15.371.53 6.372 2.67 11.061 6.218 14.177a8.013 8.013 0 0 0-.243 3.21c.39 3.269 2.042 5.624 4.595 7.075C16.091 49.51 19.207 50 22.524 50c5.48 0 10.284-2.947 13.942-6.889l.534-.575V8.249Z" stroke="#000" stroke-width="4"/><path d="M42.972 23.984c.071-.652.108-1.314.108-1.984 0-10.217-9.507-17-20-17s-19 6.5-18 18.5c.556 6.677 2.946 11.072 6.65 13.717-.588 1.024-.845 2.227-.682 3.6.63 5.281 5.138 7.183 11.476 7.183 11.105 0 19.892-14.047 20.448-24.016Z" fill="rgba(249, 201, 182, 1)"/><path d="M27.5 13.5c-4-1.833-12.8-2.8-16 8" stroke="#000" stroke-width="4"/><path d="M17 14c2.167 1.833 6.3 7.5 5.5 15.5" stroke="#000" stroke-width="4"/><g transform="translate(3 42)"/></g><g transform="translate(53 272)"><g stroke="#000" stroke-width="4"><path d="M126.771 67.578 128 66l-1.229 1.578 1.722 1.34 1.186-1.83v-.001l.002-.003.009-.014.041-.063.038-.058.131-.196c.15-.225.375-.558.67-.984.588-.85 1.453-2.067 2.548-3.523 2.194-2.914 5.298-6.764 8.953-10.528 3.666-3.773 7.827-7.4 12.127-9.925 4.316-2.533 8.579-3.844 12.535-3.31 42.438 5.722 73.669 24.519 93.941 52.518h-273.3c16.3-29.342 39.484-48.019 77.07-56.588 1.602-.366 3.78-.255 6.503.379 2.695.626 5.768 1.727 9.081 3.184 6.627 2.913 14.024 7.16 20.976 11.56 6.941 4.394 13.386 8.907 18.1 12.324a364.95 364.95 0 0 1 5.605 4.144c.665.502 1.182.896 1.532 1.165l.398.306.1.078.025.02.006.004h.001Z" fill="rgba(224, 221, 255, 1)"/><path d="m52.613 37.085 5.166-19.232c.21-.779 1.217-.999 1.761-.404 14.863 16.265 33.62 15.627 39.845 14.88.845-.1 1.507.824 1.11 1.577L87.338 58.859a.95.95 0 0 1-1.038.505c-3.948-.823-23.623-5.632-33.571-21.497a.991.991 0 0 1-.116-.782ZM183.195 36.981 171.615 17.5c-.393-.662-1.362-.65-1.781-.005-5.737 8.836-15.632 12.906-19.092 14.108-.622.217-.907.956-.571 1.523l13.502 22.815c.202.34.582.525.963.417 2.135-.608 9.46-3.672 18.546-18.336.196-.315.203-.72.013-1.04Z" fill="rgba(224, 221, 255, 1)"/><path d="m52.613 37.085 5.166-19.232c.21-.779 1.217-.999 1.761-.404 14.863 16.265 33.62 15.627 39.845 14.88.845-.1 1.507.824 1.11 1.577L87.338 58.859a.95.95 0 0 1-1.038.505c-3.948-.823-23.623-5.632-33.571-21.497a.991.991 0 0 1-.116-.782ZM183.195 36.981 171.615 17.5c-.393-.662-1.362-.65-1.781-.005-5.737 8.836-15.632 12.906-19.092 14.108-.622.217-.907.956-.571 1.523l13.502 22.815c.202.34.582.525.963.417 2.135-.608 9.46-3.672 18.546-18.336.196-.315.203-.72.013-1.04Z" fill="#fff" fill-opacity=".75"/><path d="m109.5 54.5-9-21.5-7 15 16 6.5ZM141 53.5l9-21.5 7 15-16 6.5ZM70.5 14l-12 3 10 6.5 2-9.5ZM160 14l11 3-7 6.5-4-9.5Z" fill="#000" stroke-linejoin="round"/></g></g></g></svg>