<svg xmlns:dc="http://purl.org/dc/elements/1.1/" xmlns:cc="http://creativecommons.org/ns#" xmlns:rdf="http://www.w3.org/1999/02/22-rdf-syntax-ns#" xmlns:svg="http://www.w3.org/2000/svg" xmlns="http://www.w3.org/2000/svg" viewBox="0 0 360 360" fill="none"><metadata><rdf:RDF><cc:Work><dc:format>image/svg+xml</dc:format><dc:type rdf:resource="http://purl.org/dc/dcmitype/StillImage"/><dc:title>Avatar Illustration System</dc:title><dc:creator><cc:Agent><dc:title>Micah Lanier</dc:title></cc:Agent></dc:creator><dc:source>https://www.figma.com/community/file/829741575478342595</dc:source><cc:license rdf:resource="https://creativecommons.org/licenses/by/4.0/"/></cc:Work><cc:License rdf:about="https://creativecommons.org/licenses/by/4.0/"><cc:permits rdf:resource="https://creativecommons.org/ns#Reproduction"/><cc:permits rdf:resource="https://creativecommons.org/ns#Distribution"/><cc:permits rdf:resource="https://creativecommons.org/ns#DerivativeWorks"/><cc:requires rdf:resource="https://creativecommons.org/ns#Notice"/><cc:requires rdf:resource="https://creativecommons.org/ns#Attribution"/></cc:License></rdf:RDF></metadata><mask id="avatarsRadiusMask"><rect width="360" height="360" rx="0" ry="0" x="0" y="0" fill="#fff"/></mask><g mask="url(#avatarsRadiusMask)"><g transform="translate(80 23)"><path d="M154 319.5c-14.4-20-25.667-58.666-27-78L58.5 212 30 319.5h124Z" fill="rgba(172, 102, 81, 1)" stroke="#000" stroke-width="4"/><mask id="baseStandard-a" style="mask-type:alpha" maskUnits="userSpaceOnUse" x="30" y="212" width="124" height="118"><path d="M154 329.5c-14.4-20-25.667-68.666-27-88L58.5 212 30 329.5h124Z" fill="rgba(172, 102, 81, 1)"/></mask><g mask="url(#baseStandard-a)"><ellipse cx="124" cy="210" rx="59" ry="54" fill="#000" style="mix-blend-mode:multiply"/></g><path d="m181.939 151.374.002.009.093.389.144.654c8.851 40.206-16.109 80.258-56.315 89.89-40.205 9.633-80.606-14.759-90.935-54.61l-.19-.733-16.735-69.844-.067-.289C8.512 76.334 33.544 35.757 74.048 26.053c40.504-9.704 81.206 15.123 91.161 55.501l.051.208.02.083.001.005.048.198.047.199.002.004 16.396 68.437.003.009.081.338.081.339Z" fill="rgba(172, 102, 81, 1)" stroke="#000" stroke-width="4"/><g><g transform="translate(34 102.3)"/></g></g><g transform="translate(170 183)"><path d="M10 24.165c4.941 6.447 12.428 13.589 23.977 11.96 11.549-1.629 16.687-9.595 15.172-16.047" stroke="rgba(0, 0, 0, 1)" stroke-width="4"/></g><g transform="translate(110 102)"><g stroke="rgba(0, 0, 0, 1)" stroke-width="4" stroke-linecap="round"><path d="M27 26.5c6.167 2.5 21.1 3 31.5-15M94 4c5.167 5.333 18.1 12.8 28.5 0M37.148 26.458 31 21.03M116.219 9.444l1.785-8.005M45.597 22.814l-4.046-7.132M108.142 9.018 109.08.87M52.674 17.2l-2.201-7.9M99.993 8.031l-.776-8.164"/></g></g><g transform="translate(49 11)"><path d="M210.178 49.397c-1.264 6.057-4.603 11.325-9.428 15.902 9.392 34.064 9.604 53.868 4.384 57.648l-14.796-49.986C158.389 91.7 98.645 94.896 83.678 94.896a57.652 57.652 0 0 0-4.429.675C64.603 104.563 76.656 147.688 91 166l-11 2c-5.14-24.966-17.413-22.916-26.612-21.38l-.317.053c2.194 13.631 6.723 27.733 10.445 39.319a691.626 691.626 0 0 1 2.662 8.404c-.784.105-1.474.297-2.116.475-5.503 1.527-7.413 2.058-33.384-61.975-6.467-15.944-6.026-30.153-.968-42.611-4.78-4.806-14.37-7.15-19.71-7.785 10.44-6.12 20.582-4.87 25.544-3.1a68.676 68.676 0 0 1 1.555-2.218c-.97-4.412-7.964-9.46-12.11-11.819 8.56-4.31 18.62-2.035 22.992-.21C67.63 47.136 97.025 35.053 122 28.998 170.815 17.165 189.5.502 189.5.502 210.178 9 215.117 25.718 210.178 49.397Z" fill="rgba(244, 209, 80, 1)" stroke="#000" stroke-width="4"/></g><g transform="translate(142 119)"><g fill="#000"><ellipse cx="16.117" cy="28.927" rx="9" ry="10" transform="rotate(-6.776 16.117 28.927)"/><ellipse cx="80.149" cy="18.923" rx="9" ry="10" transform="rotate(-6.276 80.149 18.923)"/></g><g transform="translate(-40 -8)"/></g><g transform="rotate(-8 1149.438 -1186.916)"><path d="M16.5 7c-.333 3.833 0 12.2 4 15 5 3.5-.5 12-10.5 10" stroke="#000" stroke-width="4"/></g><g transform="translate(84 154)"><path d="M30.5 6.176A23.778 23.778 0 0 0 23.08 5c-10.493 0-19 6.5-18 18.5 1.042 12.5 8.507 17 19 17 1.168 0 2.31-.102 3.42-.299 1.21-.214 2.381-.54 3.5-.966" stroke="#000" stroke-width="8"/><path d="M31.5 39.036a19.382 19.382 0 0 1-7.42 1.464c-10.493 0-17.958-4.5-19-17-1-12 7.507-18.5 18-18.5 3.138 0 6.187.606 8.92 1.73l-.5 32.306Z" fill="rgba(172, 102, 81, 1)"/><path d="M27.5 13.5c-4-1.833-12.8-2.8-16 8" stroke="#000" stroke-width="4"/><path d="M17 14c2.167 1.833 6.3 7.5 5.5 15.5" stroke="#000" stroke-width="4"/><g transform="translate(3 35)"/></g><g transform="translate(53 272)"><g stroke="#000" stroke-width="4"><path d="M260.694 91h-273.32c16.3-29.342 39.484-48.018 77.07-56.588C80.459 30.76 99.114 28.939 121 28.939c9.456 0 16.814 1.443 23.796 3.346 2.587.705 5.187 1.496 7.847 2.304 4.402 1.337 8.968 2.725 13.909 3.86l.14.032.144.012C212.961 42.297 240.62 62.785 260.694 91Z" fill="rgba(0, 0, 0, 1)"/><path d="m52.93 36.58 9.154-19.596c.218-.468.762-.691 1.249-.519 37.926 13.425 72.429 12.48 104.403 3.58.403-.113.833.036 1.079.373l13.932 19.052c.383.524.188 1.262-.416 1.5-33.607 13.196-96.668 10.953-128.916-3.066a.978.978 0 0 1-.484-1.324Z" fill="rgba(0, 0, 0, 1)"/><path opacity=".75" d="m52.93 36.58 9.154-19.596c.218-.468.762-.691 1.249-.519 37.926 13.425 72.429 12.48 104.403 3.58.403-.113.833.036 1.079.373l13.932 19.052c.383.524.188 1.262-.416 1.5-33.607 13.196-96.668 10.953-128.916-3.066a.978.978 0 0 1-.484-1.324Z" fill="#fff"/></g></g></g></svg>